# xmcd
#
# Track frame offsets: 
#        150
#        19822
#        31405
#        43565
#        55795
#        69645
#        82012
#        98895
#        110257
#        126262
#        138600
#        152512
#        163625
#        174060
#        183632
#        201940
#
# Disc length: 2859 seconds
#
# Revision: 8
# Processed by: cddbd v1.5.2PL0 Copyright (c) Steve Scherf et al.
# Submitted via: ExactAudioCopy v1.0b3
#
DISCID=d60b2910
DTITLE=Various Artist - Essential Country
DYEAR=1996
DGENRE=Country
TTITLE0=Kenny Rogers - Coward Of The County
TTITLE1=Glen Campbell and Bobbie Gentry - All I Have To Do Is Dream
TTITLE2=Roy Clark - The Tips Of My Fingers
TTITLE3=Merle Haggard and The Strangers - Okie From Muskogee
TTITLE4=Crystal Gayle - River Road
TTITLE5=Dr. Hook - Only Sixteen
TTITLE6=Roy Acuff and The Nitty Gritty Dirt Band - I Saw the Light
TTITLE7=Sonny James - Young Love
TTITLE8=Billie Jo Spears - Blanket On The Ground
TTITLE9=Willie Nelson and Shirley Collie - Willingly
TTITLE10=Larry Gatlin and The Gatlin Brothers - Boogie and Beethoven
TTITLE11=Freddie Hart - Easy Lovin'
TTITLE12=Faron Young - Live Fast, Love Hard, Die Young
TTITLE13=George Jones - The Race Is On
TTITLE14=Juice Newton - The Sweetest Thing (I've Ever Known)
TTITLE15=Glen Campbell - I Wanna Live
EXTD=
EXTT0=
EXTT1=
EXTT2=
EXTT3=
EXTT4=
EXTT5=
EXTT6=
EXTT7=
EXTT8=
EXTT9=
EXTT10=
EXTT11=
EXTT12=
EXTT13=
EXTT14=
EXTT15=
PLAYORDER=
